ISO-10303-21;
HEADER;
/* Generated by software containing ST-Developer
 * from STEP Tools, Inc. (www.steptools.com) 
 */
/* OPTION: using custom renumber hook */

FILE_DESCRIPTION(
/* description */ ('STEP AP242',
'CAx-IF Rec.Pracs.---Representation and Presentation of Product Manufa
cturing Information (PMI)---4.0---2014-10-13',
'CAx-IF Rec.Pracs.---3D Tessellated Geometry---0.4---2014-09-14','2;1',
'CAx-IF Rec.Pracs.---User Defined Attributes---1.5---2016-08-15'),
/* implementation_level */ '2;1');

FILE_NAME(
/* name */ '691824cd76021baf6ef0fd7e',
/* time_stamp */ '2025-11-15T06:59:25Z',
/* author */ (''),
/* organization */ (''),
/* preprocessor_version */ 'ST-DEVELOPER v20',
/* originating_system */ 'ONSHAPE BY PTC INC, 1.206',
/* authorisation */ '  ');

FILE_SCHEMA (('AP242_MANAGED_MODEL_BASED_3D_ENGINEERING_MIM_LF { 1 0 10303 442 1 1 4 }'));
ENDSEC;

DATA;
#10=SHAPE_REPRESENTATION_RELATIONSHIP('','',#395,#11);
#11=ADVANCED_BREP_SHAPE_REPRESENTATION('',(#393),#673);
#12=CONICAL_SURFACE('',#436,0.0016,0.523598775598299);
#13=CONICAL_SURFACE('',#437,0.0016,0.523598775598299);
#14=CONICAL_SURFACE('',#440,0.0016,0.523598775598299);
#15=CONICAL_SURFACE('',#441,0.0016,0.523598775598299);
#16=CYLINDRICAL_SURFACE('',#415,0.002);
#17=CYLINDRICAL_SURFACE('',#417,0.002);
#18=CYLINDRICAL_SURFACE('',#419,0.002);
#19=CYLINDRICAL_SURFACE('',#421,0.002);
#20=CYLINDRICAL_SURFACE('',#423,0.002625);
#21=CYLINDRICAL_SURFACE('',#426,0.002625);
#22=CYLINDRICAL_SURFACE('',#429,0.002625);
#23=CYLINDRICAL_SURFACE('',#432,0.002625);
#24=LINE('',#571,#52);
#25=LINE('',#574,#53);
#26=LINE('',#576,#54);
#27=LINE('',#578,#55);
#28=LINE('',#580,#56);
#29=LINE('',#583,#57);
#30=LINE('',#585,#58);
#31=LINE('',#587,#59);
#32=LINE('',#593,#60);
#33=LINE('',#596,#61);
#34=LINE('',#598,#62);
#35=LINE('',#600,#63);
#36=LINE('',#602,#64);
#37=LINE('',#605,#65);
#38=LINE('',#607,#66);
#39=LINE('',#609,#67);
#40=LINE('',#619,#68);
#41=LINE('',#623,#69);
#42=LINE('',#627,#70);
#43=LINE('',#631,#71);
#44=LINE('',#657,#72);
#45=LINE('',#658,#73);
#46=LINE('',#660,#74);
#47=LINE('',#662,#75);
#48=LINE('',#664,#76);
#49=LINE('',#666,#77);
#50=LINE('',#668,#78);
#51=LINE('',#670,#79);
#52=VECTOR('',#451,1.);
#53=VECTOR('',#452,1.);
#54=VECTOR('',#453,1.);
#55=VECTOR('',#454,1.);
#56=VECTOR('',#457,1.);
#57=VECTOR('',#458,1.);
#58=VECTOR('',#459,1.);
#59=VECTOR('',#460,1.);
#60=VECTOR('',#467,1.);
#61=VECTOR('',#468,1.);
#62=VECTOR('',#469,1.);
#63=VECTOR('',#470,1.);
#64=VECTOR('',#473,1.);
#65=VECTOR('',#474,1.);
#66=VECTOR('',#475,1.);
#67=VECTOR('',#476,1.);
#68=VECTOR('',#491,1.);
#69=VECTOR('',#494,1.);
#70=VECTOR('',#497,1.);
#71=VECTOR('',#500,1.);
#72=VECTOR('',#543,1.);
#73=VECTOR('',#544,1.);
#74=VECTOR('',#547,1.);
#75=VECTOR('',#550,1.);
#76=VECTOR('',#553,1.);
#77=VECTOR('',#556,1.);
#78=VECTOR('',#559,1.);
#79=VECTOR('',#562,1.);
#80=ORIENTED_EDGE('',*,*,#176,.T.);
#81=ORIENTED_EDGE('',*,*,#177,.T.);
#82=ORIENTED_EDGE('',*,*,#178,.T.);
#83=ORIENTED_EDGE('',*,*,#179,.T.);
#84=ORIENTED_EDGE('',*,*,#180,.T.);
#85=ORIENTED_EDGE('',*,*,#181,.T.);
#86=ORIENTED_EDGE('',*,*,#182,.T.);
#87=ORIENTED_EDGE('',*,*,#183,.T.);
#88=ORIENTED_EDGE('',*,*,#184,.T.);
#89=ORIENTED_EDGE('',*,*,#185,.F.);
#90=ORIENTED_EDGE('',*,*,#186,.F.);
#91=ORIENTED_EDGE('',*,*,#187,.F.);
#92=ORIENTED_EDGE('',*,*,#188,.T.);
#93=ORIENTED_EDGE('',*,*,#189,.T.);
#94=ORIENTED_EDGE('',*,*,#190,.T.);
#95=ORIENTED_EDGE('',*,*,#191,.F.);
#96=ORIENTED_EDGE('',*,*,#192,.T.);
#97=ORIENTED_EDGE('',*,*,#193,.T.);
#98=ORIENTED_EDGE('',*,*,#194,.T.);
#99=ORIENTED_EDGE('',*,*,#195,.F.);
#100=ORIENTED_EDGE('',*,*,#181,.F.);
#101=ORIENTED_EDGE('',*,*,#196,.T.);
#102=ORIENTED_EDGE('',*,*,#185,.T.);
#103=ORIENTED_EDGE('',*,*,#197,.T.);
#104=ORIENTED_EDGE('',*,*,#191,.T.);
#105=ORIENTED_EDGE('',*,*,#198,.T.);
#106=ORIENTED_EDGE('',*,*,#195,.T.);
#107=ORIENTED_EDGE('',*,*,#199,.T.);
#108=ORIENTED_EDGE('',*,*,#200,.T.);
#109=ORIENTED_EDGE('',*,*,#201,.T.);
#110=ORIENTED_EDGE('',*,*,#202,.T.);
#111=ORIENTED_EDGE('',*,*,#203,.T.);
#112=ORIENTED_EDGE('',*,*,#204,.T.);
#113=ORIENTED_EDGE('',*,*,#205,.T.);
#114=ORIENTED_EDGE('',*,*,#206,.T.);
#115=ORIENTED_EDGE('',*,*,#207,.T.);
#116=ORIENTED_EDGE('',*,*,#180,.F.);
#117=ORIENTED_EDGE('',*,*,#208,.T.);
#118=ORIENTED_EDGE('',*,*,#182,.F.);
#119=ORIENTED_EDGE('',*,*,#196,.F.);
#120=ORIENTED_EDGE('',*,*,#184,.F.);
#121=ORIENTED_EDGE('',*,*,#209,.T.);
#122=ORIENTED_EDGE('',*,*,#188,.F.);
#123=ORIENTED_EDGE('',*,*,#197,.F.);
#124=ORIENTED_EDGE('',*,*,#190,.F.);
#125=ORIENTED_EDGE('',*,*,#210,.T.);
#126=ORIENTED_EDGE('',*,*,#192,.F.);
#127=ORIENTED_EDGE('',*,*,#198,.F.);
#128=ORIENTED_EDGE('',*,*,#194,.F.);
#129=ORIENTED_EDGE('',*,*,#211,.T.);
#130=ORIENTED_EDGE('',*,*,#178,.F.);
#131=ORIENTED_EDGE('',*,*,#199,.F.);
#132=ORIENTED_EDGE('',*,*,#212,.F.);
#133=ORIENTED_EDGE('',*,*,#187,.T.);
#134=ORIENTED_EDGE('',*,*,#212,.T.);
#135=ORIENTED_EDGE('',*,*,#213,.F.);
#136=ORIENTED_EDGE('',*,*,#186,.T.);
#137=ORIENTED_EDGE('',*,*,#213,.T.);
#138=ORIENTED_EDGE('',*,*,#214,.T.);
#139=ORIENTED_EDGE('',*,*,#177,.F.);
#140=ORIENTED_EDGE('',*,*,#214,.F.);
#141=ORIENTED_EDGE('',*,*,#215,.T.);
#142=ORIENTED_EDGE('',*,*,#176,.F.);
#143=ORIENTED_EDGE('',*,*,#215,.F.);
#144=ORIENTED_EDGE('',*,*,#216,.F.);
#145=ORIENTED_EDGE('',*,*,#205,.F.);
#146=ORIENTED_EDGE('',*,*,#217,.F.);
#147=ORIENTED_EDGE('',*,*,#183,.F.);
#148=ORIENTED_EDGE('',*,*,#217,.T.);
#149=ORIENTED_EDGE('',*,*,#204,.F.);
#150=ORIENTED_EDGE('',*,*,#218,.F.);
#151=ORIENTED_EDGE('',*,*,#209,.F.);
#152=ORIENTED_EDGE('',*,*,#216,.T.);
#153=ORIENTED_EDGE('',*,*,#208,.F.);
#154=ORIENTED_EDGE('',*,*,#219,.F.);
#155=ORIENTED_EDGE('',*,*,#206,.F.);
#156=ORIENTED_EDGE('',*,*,#218,.T.);
#157=ORIENTED_EDGE('',*,*,#203,.F.);
#158=ORIENTED_EDGE('',*,*,#220,.F.);
#159=ORIENTED_EDGE('',*,*,#189,.F.);
#160=ORIENTED_EDGE('',*,*,#219,.T.);
#161=ORIENTED_EDGE('',*,*,#179,.F.);
#162=ORIENTED_EDGE('',*,*,#221,.F.);
#163=ORIENTED_EDGE('',*,*,#207,.F.);
#164=ORIENTED_EDGE('',*,*,#220,.T.);
#165=ORIENTED_EDGE('',*,*,#202,.F.);
#166=ORIENTED_EDGE('',*,*,#222,.F.);
#167=ORIENTED_EDGE('',*,*,#210,.F.);
#168=ORIENTED_EDGE('',*,*,#221,.T.);
#169=ORIENTED_EDGE('',*,*,#211,.F.);
#170=ORIENTED_EDGE('',*,*,#223,.F.);
#171=ORIENTED_EDGE('',*,*,#200,.F.);
#172=ORIENTED_EDGE('',*,*,#222,.T.);
#173=ORIENTED_EDGE('',*,*,#201,.F.);
#174=ORIENTED_EDGE('',*,*,#223,.T.);
#175=ORIENTED_EDGE('',*,*,#193,.F.);
#176=EDGE_CURVE('',#224,#224,#256,.T.);
#177=EDGE_CURVE('',#225,#225,#257,.T.);
#178=EDGE_CURVE('',#226,#227,#24,.T.);
#179=EDGE_CURVE('',#227,#228,#25,.T.);
#180=EDGE_CURVE('',#228,#229,#26,.F.);
#181=EDGE_CURVE('',#229,#226,#27,.T.);
#182=EDGE_CURVE('',#230,#231,#28,.T.);
#183=EDGE_CURVE('',#231,#232,#29,.T.);
#184=EDGE_CURVE('',#232,#233,#30,.F.);
#185=EDGE_CURVE('',#230,#233,#31,.T.);
#186=EDGE_CURVE('',#234,#234,#258,.T.);
#187=EDGE_CURVE('',#235,#235,#259,.T.);
#188=EDGE_CURVE('',#236,#237,#32,.T.);
#189=EDGE_CURVE('',#237,#238,#33,.T.);
#190=EDGE_CURVE('',#238,#239,#34,.F.);
#191=EDGE_CURVE('',#236,#239,#35,.T.);
#192=EDGE_CURVE('',#240,#241,#36,.T.);
#193=EDGE_CURVE('',#241,#242,#37,.T.);
#194=EDGE_CURVE('',#242,#243,#38,.F.);
#195=EDGE_CURVE('',#240,#243,#39,.T.);
#196=EDGE_CURVE('',#229,#230,#260,.T.);
#197=EDGE_CURVE('',#233,#236,#261,.T.);
#198=EDGE_CURVE('',#239,#240,#262,.T.);
#199=EDGE_CURVE('',#243,#226,#263,.T.);
#200=EDGE_CURVE('',#244,#245,#264,.F.);
#201=EDGE_CURVE('',#245,#246,#40,.T.);
#202=EDGE_CURVE('',#246,#247,#265,.F.);
#203=EDGE_CURVE('',#247,#248,#41,.T.);
#204=EDGE_CURVE('',#248,#249,#266,.F.);
#205=EDGE_CURVE('',#249,#250,#42,.T.);
#206=EDGE_CURVE('',#250,#251,#267,.F.);
#207=EDGE_CURVE('',#251,#244,#43,.T.);
#208=EDGE_CURVE('',#228,#231,#268,.T.);
#209=EDGE_CURVE('',#232,#237,#269,.T.);
#210=EDGE_CURVE('',#238,#241,#270,.T.);
#211=EDGE_CURVE('',#242,#227,#271,.T.);
#212=EDGE_CURVE('',#252,#252,#272,.T.);
#213=EDGE_CURVE('',#253,#253,#273,.T.);
#214=EDGE_CURVE('',#254,#254,#274,.T.);
#215=EDGE_CURVE('',#255,#255,#275,.T.);
#216=EDGE_CURVE('',#250,#231,#44,.T.);
#217=EDGE_CURVE('',#232,#249,#45,.T.);
#218=EDGE_CURVE('',#237,#248,#46,.T.);
#219=EDGE_CURVE('',#251,#228,#47,.T.);
#220=EDGE_CURVE('',#238,#247,#48,.T.);
#221=EDGE_CURVE('',#244,#227,#49,.T.);
#222=EDGE_CURVE('',#241,#246,#50,.T.);
#223=EDGE_CURVE('',#245,#242,#51,.T.);
#224=VERTEX_POINT('',#568);
#225=VERTEX_POINT('',#570);
#226=VERTEX_POINT('',#572);
#227=VERTEX_POINT('',#573);
#228=VERTEX_POINT('',#575);
#229=VERTEX_POINT('',#577);
#230=VERTEX_POINT('',#581);
#231=VERTEX_POINT('',#582);
#232=VERTEX_POINT('',#584);
#233=VERTEX_POINT('',#586);
#234=VERTEX_POINT('',#590);
#235=VERTEX_POINT('',#592);
#236=VERTEX_POINT('',#594);
#237=VERTEX_POINT('',#595);
#238=VERTEX_POINT('',#597);
#239=VERTEX_POINT('',#599);
#240=VERTEX_POINT('',#603);
#241=VERTEX_POINT('',#604);
#242=VERTEX_POINT('',#606);
#243=VERTEX_POINT('',#608);
#244=VERTEX_POINT('',#617);
#245=VERTEX_POINT('',#618);
#246=VERTEX_POINT('',#620);
#247=VERTEX_POINT('',#622);
#248=VERTEX_POINT('',#624);
#249=VERTEX_POINT('',#626);
#250=VERTEX_POINT('',#628);
#251=VERTEX_POINT('',#630);
#252=VERTEX_POINT('',#642);
#253=VERTEX_POINT('',#646);
#254=VERTEX_POINT('',#650);
#255=VERTEX_POINT('',#654);
#256=CIRCLE('',#398,0.002625);
#257=CIRCLE('',#399,0.002625);
#258=CIRCLE('',#402,0.002625);
#259=CIRCLE('',#403,0.002625);
#260=CIRCLE('',#406,0.002);
#261=CIRCLE('',#407,0.002);
#262=CIRCLE('',#408,0.002);
#263=CIRCLE('',#409,0.002);
#264=CIRCLE('',#411,0.0016);
#265=CIRCLE('',#412,0.0016);
#266=CIRCLE('',#413,0.0016);
#267=CIRCLE('',#414,0.0016);
#268=CIRCLE('',#416,0.002);
#269=CIRCLE('',#418,0.002);
#270=CIRCLE('',#420,0.002);
#271=CIRCLE('',#422,0.002);
#272=CIRCLE('',#424,0.002625);
#273=CIRCLE('',#427,0.002625);
#274=CIRCLE('',#430,0.002625);
#275=CIRCLE('',#433,0.002625);
#276=EDGE_LOOP('',(#80));
#277=EDGE_LOOP('',(#81));
#278=EDGE_LOOP('',(#82,#83,#84,#85));
#279=EDGE_LOOP('',(#86,#87,#88,#89));
#280=EDGE_LOOP('',(#90));
#281=EDGE_LOOP('',(#91));
#282=EDGE_LOOP('',(#92,#93,#94,#95));
#283=EDGE_LOOP('',(#96,#97,#98,#99));
#284=EDGE_LOOP('',(#100,#101,#102,#103,#104,#105,#106,#107));
#285=EDGE_LOOP('',(#108,#109,#110,#111,#112,#113,#114,#115));
#286=EDGE_LOOP('',(#116,#117,#118,#119));
#287=EDGE_LOOP('',(#120,#121,#122,#123));
#288=EDGE_LOOP('',(#124,#125,#126,#127));
#289=EDGE_LOOP('',(#128,#129,#130,#131));
#290=EDGE_LOOP('',(#132));
#291=EDGE_LOOP('',(#133));
#292=EDGE_LOOP('',(#134));
#293=EDGE_LOOP('',(#135));
#294=EDGE_LOOP('',(#136));
#295=EDGE_LOOP('',(#137));
#296=EDGE_LOOP('',(#138));
#297=EDGE_LOOP('',(#139));
#298=EDGE_LOOP('',(#140));
#299=EDGE_LOOP('',(#141));
#300=EDGE_LOOP('',(#142));
#301=EDGE_LOOP('',(#143));
#302=EDGE_LOOP('',(#144,#145,#146,#147));
#303=EDGE_LOOP('',(#148,#149,#150,#151));
#304=EDGE_LOOP('',(#152,#153,#154,#155));
#305=EDGE_LOOP('',(#156,#157,#158,#159));
#306=EDGE_LOOP('',(#160,#161,#162,#163));
#307=EDGE_LOOP('',(#164,#165,#166,#167));
#308=EDGE_LOOP('',(#168,#169,#170,#171));
#309=EDGE_LOOP('',(#172,#173,#174,#175));
#310=FACE_BOUND('',#276,.T.);
#311=FACE_BOUND('',#277,.T.);
#312=FACE_BOUND('',#278,.T.);
#313=FACE_BOUND('',#279,.T.);
#314=FACE_BOUND('',#280,.T.);
#315=FACE_BOUND('',#281,.T.);
#316=FACE_BOUND('',#282,.T.);
#317=FACE_BOUND('',#283,.T.);
#318=FACE_BOUND('',#284,.T.);
#319=FACE_BOUND('',#285,.T.);
#320=FACE_BOUND('',#286,.T.);
#321=FACE_BOUND('',#287,.T.);
#322=FACE_BOUND('',#288,.T.);
#323=FACE_BOUND('',#289,.T.);
#324=FACE_BOUND('',#290,.T.);
#325=FACE_BOUND('',#291,.T.);
#326=FACE_BOUND('',#292,.T.);
#327=FACE_BOUND('',#293,.T.);
#328=FACE_BOUND('',#294,.T.);
#329=FACE_BOUND('',#295,.T.);
#330=FACE_BOUND('',#296,.T.);
#331=FACE_BOUND('',#297,.T.);
#332=FACE_BOUND('',#298,.T.);
#333=FACE_BOUND('',#299,.T.);
#334=FACE_BOUND('',#300,.T.);
#335=FACE_BOUND('',#301,.T.);
#336=FACE_BOUND('',#302,.T.);
#337=FACE_BOUND('',#303,.T.);
#338=FACE_BOUND('',#304,.T.);
#339=FACE_BOUND('',#305,.T.);
#340=FACE_BOUND('',#306,.T.);
#341=FACE_BOUND('',#307,.T.);
#342=FACE_BOUND('',#308,.T.);
#343=FACE_BOUND('',#309,.T.);
#344=PLANE('',#397);
#345=PLANE('',#400);
#346=PLANE('',#401);
#347=PLANE('',#404);
#348=PLANE('',#405);
#349=PLANE('',#410);
#350=PLANE('',#425);
#351=PLANE('',#428);
#352=PLANE('',#431);
#353=PLANE('',#434);
#354=PLANE('',#435);
#355=PLANE('',#438);
#356=PLANE('',#439);
#357=PLANE('',#442);
#358=ADVANCED_FACE('',(#310,#311,#312),#344,.T.);
#359=ADVANCED_FACE('',(#313),#345,.F.);
#360=ADVANCED_FACE('',(#314,#315,#316),#346,.F.);
#361=ADVANCED_FACE('',(#317),#347,.F.);
#362=ADVANCED_FACE('',(#318),#348,.T.);
#363=ADVANCED_FACE('',(#319),#349,.F.);
#364=ADVANCED_FACE('',(#320),#16,.T.);
#365=ADVANCED_FACE('',(#321),#17,.T.);
#366=ADVANCED_FACE('',(#322),#18,.T.);
#367=ADVANCED_FACE('',(#323),#19,.T.);
#368=ADVANCED_FACE('',(#324,#325),#20,.F.);
#369=ADVANCED_FACE('',(#326),#350,.T.);
#370=ADVANCED_FACE('',(#327,#328),#21,.F.);
#371=ADVANCED_FACE('',(#329),#351,.T.);
#372=ADVANCED_FACE('',(#330,#331),#22,.F.);
#373=ADVANCED_FACE('',(#332),#352,.F.);
#374=ADVANCED_FACE('',(#333,#334),#23,.F.);
#375=ADVANCED_FACE('',(#335),#353,.F.);
#376=ADVANCED_FACE('',(#336),#354,.F.);
#377=ADVANCED_FACE('',(#337),#12,.T.);
#378=ADVANCED_FACE('',(#338),#13,.T.);
#379=ADVANCED_FACE('',(#339),#355,.F.);
#380=ADVANCED_FACE('',(#340),#356,.T.);
#381=ADVANCED_FACE('',(#341),#14,.T.);
#382=ADVANCED_FACE('',(#342),#15,.T.);
#383=ADVANCED_FACE('',(#343),#357,.F.);
#384=CLOSED_SHELL('',(#358,#359,#360,#361,#362,#363,#364,#365,#366,#367,
#368,#369,#370,#371,#372,#373,#374,#375,#376,#377,#378,#379,#380,#381,#382,
#383));
#385=STYLED_ITEM('',(#386),#393);
#386=PRESENTATION_STYLE_ASSIGNMENT((#387));
#387=SURFACE_STYLE_USAGE(.BOTH.,#388);
#388=SURFACE_SIDE_STYLE('',(#389));
#389=SURFACE_STYLE_FILL_AREA(#390);
#390=FILL_AREA_STYLE('',(#391));
#391=FILL_AREA_STYLE_COLOUR('',#392);
#392=COLOUR_RGB('',0.768627450980392,0.886274509803922,0.952941176470588);
#393=MANIFOLD_SOLID_BREP('Part 118',#384);
#394=SHAPE_DEFINITION_REPRESENTATION(#678,#395);
#395=SHAPE_REPRESENTATION('Part 118',(#396),#673);
#396=AXIS2_PLACEMENT_3D('',#565,#443,#444);
#397=AXIS2_PLACEMENT_3D('',#566,#445,#446);
#398=AXIS2_PLACEMENT_3D('',#567,#447,#448);
#399=AXIS2_PLACEMENT_3D('',#569,#449,#450);
#400=AXIS2_PLACEMENT_3D('',#579,#455,#456);
#401=AXIS2_PLACEMENT_3D('',#588,#461,#462);
#402=AXIS2_PLACEMENT_3D('',#589,#463,#464);
#403=AXIS2_PLACEMENT_3D('',#591,#465,#466);
#404=AXIS2_PLACEMENT_3D('',#601,#471,#472);
#405=AXIS2_PLACEMENT_3D('',#610,#477,#478);
#406=AXIS2_PLACEMENT_3D('',#611,#479,#480);
#407=AXIS2_PLACEMENT_3D('',#612,#481,#482);
#408=AXIS2_PLACEMENT_3D('',#613,#483,#484);
#409=AXIS2_PLACEMENT_3D('',#614,#485,#486);
#410=AXIS2_PLACEMENT_3D('',#615,#487,#488);
#411=AXIS2_PLACEMENT_3D('',#616,#489,#490);
#412=AXIS2_PLACEMENT_3D('',#621,#492,#493);
#413=AXIS2_PLACEMENT_3D('',#625,#495,#496);
#414=AXIS2_PLACEMENT_3D('',#629,#498,#499);
#415=AXIS2_PLACEMENT_3D('',#632,#501,#502);
#416=AXIS2_PLACEMENT_3D('',#633,#503,#504);
#417=AXIS2_PLACEMENT_3D('',#634,#505,#506);
#418=AXIS2_PLACEMENT_3D('',#635,#507,#508);
#419=AXIS2_PLACEMENT_3D('',#636,#509,#510);
#420=AXIS2_PLACEMENT_3D('',#637,#511,#512);
#421=AXIS2_PLACEMENT_3D('',#638,#513,#514);
#422=AXIS2_PLACEMENT_3D('',#639,#515,#516);
#423=AXIS2_PLACEMENT_3D('',#640,#517,#518);
#424=AXIS2_PLACEMENT_3D('',#641,#519,#520);
#425=AXIS2_PLACEMENT_3D('',#643,#521,#522);
#426=AXIS2_PLACEMENT_3D('',#644,#523,#524);
#427=AXIS2_PLACEMENT_3D('',#645,#525,#526);
#428=AXIS2_PLACEMENT_3D('',#647,#527,#528);
#429=AXIS2_PLACEMENT_3D('',#648,#529,#530);
#430=AXIS2_PLACEMENT_3D('',#649,#531,#532);
#431=AXIS2_PLACEMENT_3D('',#651,#533,#534);
#432=AXIS2_PLACEMENT_3D('',#652,#535,#536);
#433=AXIS2_PLACEMENT_3D('',#653,#537,#538);
#434=AXIS2_PLACEMENT_3D('',#655,#539,#540);
#435=AXIS2_PLACEMENT_3D('',#656,#541,#542);
#436=AXIS2_PLACEMENT_3D('',#659,#545,#546);
#437=AXIS2_PLACEMENT_3D('',#661,#548,#549);
#438=AXIS2_PLACEMENT_3D('',#663,#551,#552);
#439=AXIS2_PLACEMENT_3D('',#665,#554,#555);
#440=AXIS2_PLACEMENT_3D('',#667,#557,#558);
#441=AXIS2_PLACEMENT_3D('',#669,#560,#561);
#442=AXIS2_PLACEMENT_3D('',#671,#563,#564);
#443=DIRECTION('',(0.,0.,1.));
#444=DIRECTION('',(1.,0.,0.));
#445=DIRECTION('',(1.,0.,0.));
#446=DIRECTION('',(0.,0.,-1.));
#447=DIRECTION('',(-1.,0.,0.));
#448=DIRECTION('',(0.,0.,1.));
#449=DIRECTION('',(-1.,0.,0.));
#450=DIRECTION('',(0.,0.,1.));
#451=DIRECTION('',(0.,0.,-1.));
#452=DIRECTION('',(0.,1.,0.));
#453=DIRECTION('',(0.,0.,-1.));
#454=DIRECTION('',(0.,-1.,0.));
#455=DIRECTION('',(0.,-1.,0.));
#456=DIRECTION('',(0.,0.,-1.));
#457=DIRECTION('',(0.,0.,-1.));
#458=DIRECTION('',(-1.,0.,0.));
#459=DIRECTION('',(0.,0.,-1.));
#460=DIRECTION('',(-1.,0.,0.));
#461=DIRECTION('',(1.,0.,0.));
#462=DIRECTION('',(0.,0.,-1.));
#463=DIRECTION('',(-1.,0.,0.));
#464=DIRECTION('',(0.,0.,1.));
#465=DIRECTION('',(-1.,0.,0.));
#466=DIRECTION('',(0.,0.,1.));
#467=DIRECTION('',(0.,0.,-1.));
#468=DIRECTION('',(0.,-1.,0.));
#469=DIRECTION('',(0.,0.,-1.));
#470=DIRECTION('',(0.,-1.,0.));
#471=DIRECTION('',(0.,1.,0.));
#472=DIRECTION('',(0.,0.,1.));
#473=DIRECTION('',(0.,0.,-1.));
#474=DIRECTION('',(1.,0.,0.));
#475=DIRECTION('',(0.,0.,-1.));
#476=DIRECTION('',(1.,0.,0.));
#477=DIRECTION('',(0.,0.,1.));
#478=DIRECTION('',(1.,0.,0.));
#479=DIRECTION('',(0.,0.,1.));
#480=DIRECTION('',(1.,0.,0.));
#481=DIRECTION('',(0.,0.,1.));
#482=DIRECTION('',(1.,0.,0.));
#483=DIRECTION('',(0.,0.,1.));
#484=DIRECTION('',(1.,0.,0.));
#485=DIRECTION('',(0.,0.,1.));
#486=DIRECTION('',(1.,0.,0.));
#487=DIRECTION('',(0.,0.,1.));
#488=DIRECTION('',(1.,0.,0.));
#489=DIRECTION('',(0.,0.,1.));
#490=DIRECTION('',(1.,0.,0.));
#491=DIRECTION('',(-1.,0.,0.));
#492=DIRECTION('',(0.,0.,1.));
#493=DIRECTION('',(1.,0.,0.));
#494=DIRECTION('',(0.,1.,0.));
#495=DIRECTION('',(0.,0.,1.));
#496=DIRECTION('',(1.,0.,0.));
#497=DIRECTION('',(1.,0.,0.));
#498=DIRECTION('',(0.,0.,1.));
#499=DIRECTION('',(1.,0.,0.));
#500=DIRECTION('',(0.,-1.,0.));
#501=DIRECTION('',(0.,0.,1.));
#502=DIRECTION('',(1.,0.,0.));
#503=DIRECTION('',(0.,0.,1.));
#504=DIRECTION('',(1.,0.,0.));
#505=DIRECTION('',(0.,0.,-1.));
#506=DIRECTION('',(-1.,0.,0.));
#507=DIRECTION('',(0.,0.,1.));
#508=DIRECTION('',(1.,0.,0.));
#509=DIRECTION('',(0.,0.,-1.));
#510=DIRECTION('',(-1.,0.,0.));
#511=DIRECTION('',(0.,0.,1.));
#512=DIRECTION('',(1.,0.,0.));
#513=DIRECTION('',(0.,0.,1.));
#514=DIRECTION('',(1.,0.,0.));
#515=DIRECTION('',(0.,0.,1.));
#516=DIRECTION('',(1.,0.,0.));
#517=DIRECTION('',(-1.,0.,0.));
#518=DIRECTION('',(0.,0.,1.));
#519=DIRECTION('',(-1.,0.,0.));
#520=DIRECTION('',(0.,0.,1.));
#521=DIRECTION('',(-1.,0.,0.));
#522=DIRECTION('',(0.,-1.,0.));
#523=DIRECTION('',(-1.,0.,0.));
#524=DIRECTION('',(0.,0.,1.));
#525=DIRECTION('',(-1.,0.,0.));
#526=DIRECTION('',(0.,0.,1.));
#527=DIRECTION('',(-1.,0.,0.));
#528=DIRECTION('',(0.,-1.,0.));
#529=DIRECTION('',(1.,0.,0.));
#530=DIRECTION('',(0.,0.,-1.));
#531=DIRECTION('',(-1.,0.,0.));
#532=DIRECTION('',(0.,0.,1.));
#533=DIRECTION('',(-1.,0.,0.));
#534=DIRECTION('',(0.,-1.,0.));
#535=DIRECTION('',(1.,0.,0.));
#536=DIRECTION('',(0.,0.,-1.));
#537=DIRECTION('',(-1.,0.,0.));
#538=DIRECTION('',(0.,0.,1.));
#539=DIRECTION('',(-1.,0.,0.));
#540=DIRECTION('',(0.,-1.,0.));
#541=DIRECTION('',(0.,-0.866025403784438,0.5));
#542=DIRECTION('',(-1.,0.,0.));
#543=DIRECTION('',(0.,0.5,0.866025403784438));
#544=DIRECTION('',(0.,-0.5,-0.866025403784438));
#545=DIRECTION('',(0.,0.,1.));
#546=DIRECTION('',(1.,0.,0.));
#547=DIRECTION('',(0.5,0.,-0.866025403784439));
#548=DIRECTION('',(0.,0.,1.));
#549=DIRECTION('',(1.,0.,0.));
#550=DIRECTION('',(0.5,0.,0.866025403784439));
#551=DIRECTION('',(0.866025403784438,0.,0.5));
#552=DIRECTION('',(0.,-1.,0.));
#553=DIRECTION('',(0.5,0.,-0.866025403784438));
#554=DIRECTION('',(0.866025403784438,0.,-0.5));
#555=DIRECTION('',(0.,1.,0.));
#556=DIRECTION('',(0.5,0.,0.866025403784438));
#557=DIRECTION('',(0.,0.,1.));
#558=DIRECTION('',(1.,0.,0.));
#559=DIRECTION('',(0.,0.5,-0.866025403784439));
#560=DIRECTION('',(0.,0.,1.));
#561=DIRECTION('',(1.,0.,0.));
#562=DIRECTION('',(0.,-0.5,0.866025403784438));
#563=DIRECTION('',(0.,0.866025403784438,0.5));
#564=DIRECTION('',(1.,0.,0.));
#565=CARTESIAN_POINT('',(0.,0.,0.));
#566=CARTESIAN_POINT('',(0.114125,0.018375,0.00975));
#567=CARTESIAN_POINT('',(0.114125,0.012875,0.003375));
#568=CARTESIAN_POINT('',(0.114125,0.012875,0.006));
#569=CARTESIAN_POINT('',(0.114125,0.023875,0.003375));
#570=CARTESIAN_POINT('',(0.114125,0.023875,0.006));
#571=CARTESIAN_POINT('',(0.114125,0.007375,0.));
#572=CARTESIAN_POINT('',(0.114125,0.007375,0.00975));
#573=CARTESIAN_POINT('',(0.114125,0.007375,0.000692820323027546));
#574=CARTESIAN_POINT('',(0.114125,0.029375,0.000692820323027546));
#575=CARTESIAN_POINT('',(0.114125,0.029375,0.000692820323027546));
#576=CARTESIAN_POINT('',(0.114125,0.029375,0.00975));
#577=CARTESIAN_POINT('',(0.114125,0.029375,0.00975));
#578=CARTESIAN_POINT('',(0.114125,0.018375,0.00975));
#579=CARTESIAN_POINT('',(0.101125,0.031375,0.00975));
#580=CARTESIAN_POINT('',(0.112125,0.031375,0.));
#581=CARTESIAN_POINT('',(0.112125,0.031375,0.00975));
#582=CARTESIAN_POINT('',(0.112125,0.031375,0.000692820323027546));
#583=CARTESIAN_POINT('',(0.101125,0.031375,0.000692820323027546));
#584=CARTESIAN_POINT('',(0.090125,0.031375,0.000692820323027546));
#585=CARTESIAN_POINT('',(0.090125,0.031375,0.00975));
#586=CARTESIAN_POINT('',(0.090125,0.031375,0.00975));
#587=CARTESIAN_POINT('',(0.101125,0.031375,0.00975));
#588=CARTESIAN_POINT('',(0.088125,0.018375,0.00975));
#589=CARTESIAN_POINT('',(0.088125,0.023875,0.003375));
#590=CARTESIAN_POINT('',(0.088125,0.023875,0.006));
#591=CARTESIAN_POINT('',(0.088125,0.012875,0.003375));
#592=CARTESIAN_POINT('',(0.088125,0.012875,0.006));
#593=CARTESIAN_POINT('',(0.088125,0.029375,0.00975));
#594=CARTESIAN_POINT('',(0.088125,0.029375,0.00975));
#595=CARTESIAN_POINT('',(0.088125,0.029375,0.000692820323027546));
#596=CARTESIAN_POINT('',(0.088125,0.018375,0.000692820323027546));
#597=CARTESIAN_POINT('',(0.088125,0.007375,0.000692820323027546));
#598=CARTESIAN_POINT('',(0.088125,0.007375,0.00975));
#599=CARTESIAN_POINT('',(0.088125,0.007375,0.00975));
#600=CARTESIAN_POINT('',(0.088125,0.018375,0.00975));
#601=CARTESIAN_POINT('',(0.101125,0.005375,0.00975));
#602=CARTESIAN_POINT('',(0.090125,0.005375,0.00975));
#603=CARTESIAN_POINT('',(0.090125,0.005375,0.00975));
#604=CARTESIAN_POINT('',(0.090125,0.005375,0.000692820323027546));
#605=CARTESIAN_POINT('',(0.101125,0.005375,0.000692820323027546));
#606=CARTESIAN_POINT('',(0.112125,0.005375,0.000692820323027546));
#607=CARTESIAN_POINT('',(0.112125,0.005375,0.00975));
#608=CARTESIAN_POINT('',(0.112125,0.005375,0.00975));
#609=CARTESIAN_POINT('',(0.101125,0.005375,0.00975));
#610=CARTESIAN_POINT('',(0.,1.38777878078145E-17,0.00975));
#611=CARTESIAN_POINT('',(0.112125,0.029375,0.00975));
#612=CARTESIAN_POINT('',(0.090125,0.029375,0.00975));
#613=CARTESIAN_POINT('',(0.090125,0.007375,0.00975));
#614=CARTESIAN_POINT('',(0.112125,0.007375,0.00975));
#615=CARTESIAN_POINT('',(0.,1.38777878078145E-17,0.));
#616=CARTESIAN_POINT('',(0.112125,0.007375,0.));
#617=CARTESIAN_POINT('',(0.113725,0.007375,0.));
#618=CARTESIAN_POINT('',(0.112125,0.005775,0.));
#619=CARTESIAN_POINT('',(0.,0.005775,0.));
#620=CARTESIAN_POINT('',(0.090125,0.005775,0.));
#621=CARTESIAN_POINT('',(0.090125,0.007375,0.));
#622=CARTESIAN_POINT('',(0.088525,0.007375,0.));
#623=CARTESIAN_POINT('',(0.088525,1.38777878078145E-17,0.));
#624=CARTESIAN_POINT('',(0.088525,0.029375,0.));
#625=CARTESIAN_POINT('',(0.090125,0.029375,0.));
#626=CARTESIAN_POINT('',(0.090125,0.030975,0.));
#627=CARTESIAN_POINT('',(0.,0.030975,0.));
#628=CARTESIAN_POINT('',(0.112125,0.030975,0.));
#629=CARTESIAN_POINT('',(0.112125,0.029375,0.));
#630=CARTESIAN_POINT('',(0.113725,0.029375,0.));
#631=CARTESIAN_POINT('',(0.113725,0.007375,0.));
#632=CARTESIAN_POINT('',(0.112125,0.029375,0.00975));
#633=CARTESIAN_POINT('',(0.112125,0.029375,0.000692820323027546));
#634=CARTESIAN_POINT('',(0.090125,0.029375,0.00975));
#635=CARTESIAN_POINT('',(0.090125,0.029375,0.000692820323027546));
#636=CARTESIAN_POINT('',(0.090125,0.007375,0.00975));
#637=CARTESIAN_POINT('',(0.090125,0.007375,0.000692820323027546));
#638=CARTESIAN_POINT('',(0.112125,0.007375,0.00975));
#639=CARTESIAN_POINT('',(0.112125,0.007375,0.000692820323027546));
#640=CARTESIAN_POINT('',(0.089375,0.012875,0.003375));
#641=CARTESIAN_POINT('',(0.089375,0.012875,0.003375));
#642=CARTESIAN_POINT('',(0.089375,0.012875,0.006));
#643=CARTESIAN_POINT('',(0.089375,0.018375,0.004875));
#644=CARTESIAN_POINT('',(0.089375,0.023875,0.003375));
#645=CARTESIAN_POINT('',(0.089375,0.023875,0.003375));
#646=CARTESIAN_POINT('',(0.089375,0.023875,0.006));
#647=CARTESIAN_POINT('',(0.089375,0.018375,0.004875));
#648=CARTESIAN_POINT('',(0.112875,0.023875,0.003375));
#649=CARTESIAN_POINT('',(0.112875,0.023875,0.003375));
#650=CARTESIAN_POINT('',(0.112875,0.023875,0.006));
#651=CARTESIAN_POINT('',(0.112875,0.018375,0.004875));
#652=CARTESIAN_POINT('',(0.112875,0.012875,0.003375));
#653=CARTESIAN_POINT('',(0.112875,0.012875,0.003375));
#654=CARTESIAN_POINT('',(0.112875,0.012875,0.006));
#655=CARTESIAN_POINT('',(0.112875,0.018375,0.004875));
#656=CARTESIAN_POINT('',(0.101125,0.031375,0.000692820323027546));
#657=CARTESIAN_POINT('',(0.112125,0.030975,0.));
#658=CARTESIAN_POINT('',(0.090125,0.031375,0.000692820323027546));
#659=CARTESIAN_POINT('',(0.090125,0.029375,0.));
#660=CARTESIAN_POINT('',(0.088125,0.029375,0.000692820323027546));
#661=CARTESIAN_POINT('',(0.112125,0.029375,0.));
#662=CARTESIAN_POINT('',(0.113725,0.029375,0.));
#663=CARTESIAN_POINT('',(0.088125,0.018375,0.000692820323027546));
#664=CARTESIAN_POINT('',(0.088125,0.007375,0.000692820323027546));
#665=CARTESIAN_POINT('',(0.113725,1.38777878078145E-17,0.));
#666=CARTESIAN_POINT('',(0.113725,0.007375,0.));
#667=CARTESIAN_POINT('',(0.090125,0.007375,0.));
#668=CARTESIAN_POINT('',(0.090125,0.005375,0.000692820323027546));
#669=CARTESIAN_POINT('',(0.112125,0.007375,0.));
#670=CARTESIAN_POINT('',(0.112125,0.005775,0.));
#671=CARTESIAN_POINT('',(0.101125,0.005375,0.000692820323027546));
#672=MECHANICAL_DESIGN_GEOMETRIC_PRESENTATION_REPRESENTATION('',(#385),
#673);
#673=(
GEOMETRIC_REPRESENTATION_CONTEXT(3)
GLOBAL_UNCERTAINTY_ASSIGNED_CONTEXT((#674))
GLOBAL_UNIT_ASSIGNED_CONTEXT((#677,#676,#675))
REPRESENTATION_CONTEXT('Part 118','TOP_LEVEL_ASSEMBLY_PART')
);
#674=UNCERTAINTY_MEASURE_WITH_UNIT(LENGTH_MEASURE(1.E-8),#677,
'DISTANCE_ACCURACY_VALUE','Maximum Tolerance applied to model');
#675=(
NAMED_UNIT(*)
SI_UNIT($,.STERADIAN.)
SOLID_ANGLE_UNIT()
);
#676=(
NAMED_UNIT(*)
PLANE_ANGLE_UNIT()
SI_UNIT($,.RADIAN.)
);
#677=(
LENGTH_UNIT()
NAMED_UNIT(*)
SI_UNIT($,.METRE.)
);
#678=PRODUCT_DEFINITION_SHAPE('','',#679);
#679=PRODUCT_DEFINITION('','',#681,#680);
#680=PRODUCT_DEFINITION_CONTEXT('',#687,'design');
#681=PRODUCT_DEFINITION_FORMATION_WITH_SPECIFIED_SOURCE('','',#683,
 .NOT_KNOWN.);
#682=PRODUCT_RELATED_PRODUCT_CATEGORY('','',(#683));
#683=PRODUCT('Part 118','Part 118','Part 118',(#685));
#684=PRODUCT_CATEGORY('','');
#685=PRODUCT_CONTEXT('',#687,'mechanical');
#686=APPLICATION_PROTOCOL_DEFINITION('international standard',
'ap242_managed_model_based_3d_engineering',2011,#687);
#687=APPLICATION_CONTEXT('managed model based 3d engineering');
ENDSEC;
END-ISO-10303-21;
